<svg width="111" height="111" viewBox="0 0 111 111" fill="none" xmlns="http://www.w3.org/2000/svg">
<path d="M16.8913 103.761H89.2826V0H16.8913V103.761ZM37.5745 15.5641H27.2329V5.18804H37.5745V15.5641ZM58.2578 15.5641H47.9161V5.18804H58.2578V15.5641ZM78.941 15.5641H68.5994V5.18804H78.941V15.5641ZM37.5745 31.1283H27.2329V20.7522H37.5745V31.1283ZM58.2578 31.1283H47.9161V20.7522H58.2578V31.1283ZM78.941 31.1283H68.5994V20.7522H78.941V31.1283ZM37.5745 46.6924H27.2329V36.3163H37.5745V46.6924ZM58.2578 46.6924H47.9161V36.3163H58.2578V46.6924ZM78.941 46.6924H68.5994V36.3163H78.941V46.6924ZM37.5745 62.2565H27.2329V51.8804H37.5745V62.2565ZM58.2578 62.2565H47.9161V51.8804H58.2578V62.2565ZM78.941 62.2565H68.5994V51.8804H78.941V62.2565ZM58.2578 98.5728H27.2329V67.4446H58.2578V98.5728ZM78.941 77.8206H68.5994V67.4446H78.941V77.8206ZM78.941 93.3848H68.5994V83.0087H78.941V93.3848Z" fill="#2E309E"/>
</svg>
