<svg width="79" height="78" viewBox="0 0 79 78" fill="none" xmlns="http://www.w3.org/2000/svg">
<g clip-path="url(#clip0)">
<path d="M77.4397 67.4365L62.2495 52.2493C61.5639 51.5638 60.6346 51.1829 59.6596 51.1829H57.1764C61.3811 45.8052 63.8796 39.0427 63.8796 31.6845C63.8796 14.1817 49.6948 0 32.1905 0C14.6863 0 0.5 14.1817 0.5 31.6845C0.5 49.1872 14.6847 63.3689 32.1905 63.3689C39.5488 63.3689 46.3143 60.8705 51.6921 56.6658V59.149C51.6921 60.124 52.0729 61.0533 52.7585 61.7388L67.9487 76.926C69.3807 78.358 71.6963 78.358 73.1131 76.926L77.4245 72.6146C78.8565 71.1826 78.8565 68.8685 77.4397 67.4365ZM32.1905 53.6189C20.0731 53.6189 10.253 43.8171 10.253 31.6845C10.253 19.5686 20.0564 9.75 32.1905 9.75C44.308 9.75 54.128 19.5518 54.128 31.6845C54.128 43.8004 44.3247 53.6189 32.1905 53.6189ZM32.1936 17.0625C25.981 17.0625 20.9445 22.0975 20.9445 28.31C20.9445 33.3313 28.2966 42.4856 31.1135 45.8082C31.2456 45.9663 31.4108 46.0935 31.5974 46.1807C31.7841 46.268 31.9876 46.3132 32.1936 46.3132C32.3996 46.3132 32.6031 46.268 32.7898 46.1807C32.9764 46.0935 33.1416 45.9663 33.2737 45.8082C36.0905 42.4856 43.4427 33.3328 43.4427 28.31C43.4427 22.0975 38.4062 17.0625 32.1936 17.0625ZM32.1936 31.6875C30.1735 31.6875 28.5373 30.0498 28.5373 28.0312C28.5373 26.0112 30.175 24.375 32.1936 24.375C34.2121 24.375 35.8498 26.0112 35.8498 28.0312C35.8498 30.0498 34.2121 31.6875 32.1936 31.6875Z" fill="#2E309E"/>
</g>
<defs>
<clipPath id="clip0">
<rect width="78" height="78" fill="white" transform="translate(0.5)"/>
</clipPath>
</defs>
</svg>
